<svg xmlns="http://www.w3.org/2000/svg" xmlns:xlink="http://www.w3.org/1999/xlink" zoomAndPan="magnify" preserveAspectRatio="xMidYMid meet" version="1.0" viewBox="92.89 106.73 189.21 161.33"><defs><clipPath id="3bcd4b3773"><path d="M 126 106.726562 L 281.890625 106.726562 L 281.890625 147 L 126 147 Z M 126 106.726562 " clip-rule="nonzero"/></clipPath><clipPath id="ffd4ae806d"><path d="M 168 154 L 281.890625 154 L 281.890625 190 L 168 190 Z M 168 154 " clip-rule="nonzero"/></clipPath><clipPath id="2522543e29"><path d="M 92.890625 180 L 281.890625 180 L 281.890625 221 L 92.890625 221 Z M 92.890625 180 " clip-rule="nonzero"/></clipPath><clipPath id="5aa0edcbe5"><path d="M 135 227 L 281.890625 227 L 281.890625 267.976562 L 135 267.976562 Z M 135 227 " clip-rule="nonzero"/></clipPath></defs><g clipPath="url(#3bcd4b3773)"><path fill="#17eb33" d="M 144.519531 142.148438 C 153.421875 142.148438 160.742188 135.523438 161.929688 126.917969 L 191.996094 126.917969 L 204.855469 145.511719 C 205.351562 146.207031 206.042969 146.503906 206.832031 146.503906 L 279.730469 146.503906 C 281.015625 146.503906 282.101562 145.414062 282.101562 144.128906 C 282.101562 142.84375 281.015625 141.753906 279.730469 141.753906 L 208.019531 141.753906 L 195.164062 123.160156 C 194.667969 122.46875 193.976562 122.171875 193.183594 122.171875 L 161.832031 122.171875 C 160.644531 113.566406 153.324219 106.9375 144.421875 106.9375 C 134.730469 106.9375 126.816406 114.851562 126.816406 124.542969 C 126.816406 134.238281 134.828125 142.148438 144.519531 142.148438 Z M 144.519531 111.785156 C 151.542969 111.785156 157.28125 117.523438 157.28125 124.542969 C 157.28125 131.566406 151.542969 137.304688 144.519531 137.304688 C 137.5 137.304688 131.761719 131.566406 131.761719 124.542969 C 131.761719 117.523438 137.398438 111.785156 144.519531 111.785156 Z M 144.519531 111.785156 " fill-opacity="1" fill-rule="nonzero"/></g><g clipPath="url(#ffd4ae806d)"><path fill="#17eb33" d="M 279.730469 169.25 L 203.867188 169.25 C 202.679688 160.644531 195.359375 154.019531 186.457031 154.019531 C 176.765625 154.019531 168.851562 161.933594 168.851562 171.625 C 168.851562 181.316406 176.765625 189.230469 186.457031 189.230469 C 195.359375 189.230469 202.679688 182.601562 203.867188 174 L 279.730469 174 C 281.015625 174 282.101562 172.910156 282.101562 171.625 C 282.101562 170.339844 281.015625 169.25 279.730469 169.25 Z M 186.457031 184.484375 C 179.4375 184.484375 173.699219 178.746094 173.699219 171.722656 C 173.699219 164.699219 179.4375 158.867188 186.457031 158.867188 C 193.480469 158.867188 199.21875 164.601562 199.21875 171.625 C 199.21875 178.746094 193.480469 184.484375 186.457031 184.484375 Z M 186.457031 184.484375 " fill-opacity="1" fill-rule="nonzero"/></g><g clipPath="url(#2522543e29)"><path fill="#17eb33" d="M 279.730469 199.714844 L 213.558594 199.714844 C 212.769531 199.714844 211.976562 200.109375 211.480469 200.800781 L 202.183594 215.640625 L 161.433594 215.640625 L 151.347656 196.847656 C 150.949219 196.054688 150.160156 195.558594 149.269531 195.558594 L 127.90625 195.558594 C 126.71875 186.957031 119.398438 180.328125 110.496094 180.328125 C 100.804688 180.328125 92.890625 188.242188 92.890625 197.933594 C 92.890625 207.628906 100.804688 215.539062 110.496094 215.539062 C 119.398438 215.539062 126.71875 208.914062 127.90625 200.308594 L 147.785156 200.308594 L 157.875 219.101562 C 158.269531 219.890625 159.0625 220.386719 159.949219 220.386719 L 203.46875 220.386719 C 204.261719 220.386719 205.054688 219.992188 205.546875 219.296875 L 214.84375 204.460938 L 279.628906 204.460938 C 280.914062 204.460938 282.003906 203.375 282.003906 202.089844 C 282.101562 200.800781 281.015625 199.714844 279.730469 199.714844 Z M 110.496094 210.890625 C 103.476562 210.890625 97.738281 205.15625 97.738281 198.132812 C 97.738281 191.109375 103.476562 185.371094 110.496094 185.371094 C 117.519531 185.371094 123.257812 191.109375 123.257812 198.132812 C 123.355469 205.15625 117.617188 210.890625 110.496094 210.890625 Z M 110.496094 210.890625 " fill-opacity="1" fill-rule="nonzero"/></g><g clipPath="url(#5aa0edcbe5)"><path fill="#17eb33" d="M 279.730469 227.707031 L 241.550781 227.707031 C 240.660156 227.707031 239.867188 228.199219 239.472656 228.890625 L 228.199219 248.082031 L 170.632812 248.082031 C 169.445312 239.476562 162.128906 232.847656 153.226562 232.847656 C 143.53125 232.847656 135.621094 240.761719 135.621094 250.453125 C 135.621094 260.148438 143.53125 268.058594 153.226562 268.058594 C 162.128906 268.058594 169.445312 261.433594 170.632812 252.828125 L 229.582031 252.828125 C 230.472656 252.828125 231.265625 252.332031 231.660156 251.640625 L 242.933594 232.453125 L 279.730469 232.453125 C 281.015625 232.453125 282.101562 231.363281 282.101562 230.078125 C 282.101562 228.792969 281.015625 227.707031 279.730469 227.707031 Z M 153.226562 263.3125 C 146.203125 263.3125 140.464844 257.574219 140.464844 250.554688 C 140.464844 243.53125 146.203125 237.792969 153.226562 237.792969 C 160.246094 237.792969 165.984375 243.53125 165.984375 250.554688 C 166.082031 257.574219 160.347656 263.3125 153.226562 263.3125 Z M 153.226562 263.3125 " fill-opacity="1" fill-rule="nonzero"/></g></svg>
